<svg width="2048" height="2048" viewBox="0 0 2048 2048" xmlns="http://www.w3.org/2000/svg">
  <rect x="200" y="200" width="1648" height="1648" rx="400" ry="400" fill="#fff"/>
  <g transform="translate(128 94) scale(3)">
    <path fill="#000" d="M455.145 485.687c18.641-4.048 38.414-15.065 38.414-15.065l-34.607-28.507c-17.108-14.081-31.67-30.999-43.054-50.007-15.731-26.263-37.467-48.425-63.413-64.663l-12.672-7.379c-4.342-3.018-7.369-7.722-7.8-13.029-.276-3.422.544-6.481 2.457-9.173 6.598-9.3 40.702-49.767 46.952-54.938 8.049-6.653 17.018-12.187 25.339-18.523 1.183-.902 2.37-1.799 3.539-2.714.041-.041.1-.073.136-.109 2.67-2.108 5.19-4.347 7.193-7.002 7.233-8.376 8.991-15.781 9.422-19.058-.979-3.154-3.898-10.206-12.033-18.341 5.099.313 11.272 4.346 16.869 9.091 3.757-6.005 7.691-12.35 11.62-18.708 2.624-4.247-1.269-7.424-1.378-7.523l-.022-.005v-.018c-.1-.109-3.277-4.002-7.514-1.378-9.06 5.606-18.115 11.217-26.168 16.315 0 0-9.545-.199-20.848 9.563-2.66 2.008-4.899 4.527-7.002 7.192-.041.041-.077.095-.109.136-.92 1.165-1.817 2.352-2.714 3.54-6.341 8.325-11.87 17.29-18.523 25.339-5.167 6.254-45.638 40.353-54.938 46.952-2.692 1.913-5.747 2.737-9.173 2.456-5.302-.426-10.011-3.458-13.03-7.799l-7.378-12.672c-16.238-25.955-38.4-47.682-64.663-63.413-19.008-11.384-35.922-25.951-50.007-43.055l-28.516-34.607s-11.022 19.769-15.065 38.414c5.624 6.839 20.295 23.812 37.372 36.774-18.36-8.634-31.933-15.31-42.638-20.893-1.65 12.209-1.006 30.673.693 44.972 11.589 5.071 31.321 12.884 51.408 17.036-16.067 3.757-33.692 4.441-47.302 4.174 2.398 8.851 5.733 17.879 10.22 26.961 1.908 4.201 3.997 8.303 6.254 12.318 7.202 1.981 35.478 6.1 50.524 2.719-14.969 5.344-40.1 14.322-40.1 14.322 19.302 24.015 40.635 43.553 40.635 43.553 32.449-17.448 39.846-19.832 64.183-35.749-39.411 32.069-49.64 45.162-60.703 58.618l-7.709 10.818c-4.006 5.62-7.482 11.589-10.387 17.847-9.721 20.916-23.481 65.484-23.481 65.484-2.456 7.768 3.236 13.461 10.777 10.778 0 0 44.56-13.76 65.484-23.481 6.255-2.91 12.233-6.386 17.848-10.388l10.818-7.709c3.63-2.986 7.238-5.914 11.199-9.367 0 0 27.233 32.263 55.227 53.487 0 0 8.979-25.13 14.322-40.1-3.386 15.051.734 43.327 2.719 50.524 4.006 2.257 8.117 4.346 12.318 6.254 9.087 4.491 18.11 7.822 26.962 10.22-.263-13.614.417-31.235 4.174-47.301 4.151 20.086 11.96 39.823 17.036 51.407 14.298 1.7 32.762 2.343 44.972.693-5.584-10.704-12.26-24.287-20.893-42.637 12.961 17.077 29.934 31.747 36.773 37.371l-.014-.013z"/>
  </g>
</svg>
